<?xml version="1.0" encoding="UTF-8"?>
<svg width="42px" height="103px" viewBox="0 0 42 103" version="1.1" xmlns="http://www.w3.org/2000/svg" xmlns:xlink="http://www.w3.org/1999/xlink">
    <!-- Generator: Sketch 41 (35326) - http://www.bohemiancoding.com/sketch -->
    <title>milkbottle</title>
    <desc>Created with Sketch.</desc>
    <defs>
        <path d="M0.6592,1.22474133 C1.05373902,0.919606981 1.54927656,0.73790625 2.0872,0.73790625 L29.7872,0.73790625 C30.3258934,0.73790625 30.8219922,0.919901078 31.2168,1.2254821 L31.2168,13.5119242 C30.8219922,13.8175052 30.3258934,13.9995 29.7872,13.9995 L29.4712,13.9995 C26.9504,14.4585 21.8432,14.7740625 15.9368,14.7740625 C10.032,14.7740625 4.9248,14.4585 2.404,13.9995 L2.0872,13.9995 C1.54927656,13.9995 1.05373902,13.8177993 0.6592,13.5126649 L0.6592,1.22474133 L0.6592,1.22474133 Z" id="path-1"></path>
    </defs>
    <g id="Page-1" stroke="none" stroke-width="1" fill="none" fill-rule="evenodd">
        <g id="milkbottle" transform="translate(1.000000, 0.000000)">
            <g id="Group-9" transform="translate(0.000000, 0.737109)">
                <path d="M36.9136,35.8378594 C36.9136,32.7730781 33.94,30.2884219 30.2696,30.2884219 L8.8592,30.2884219 C5.1896,30.2884219 2.2152,32.7730781 2.2152,35.8378594 L0,93.2359688 C0,94.2272813 0.316,95.1564375 0.8616,95.962875 C1.4992,98.889 9.6648,101.203125 19.6496,101.203125 C27.296,101.203125 33.8744,99.84525 36.824,97.8960938 C38.6536,96.906375 39.8672,95.1907031 39.8672,93.2359688 L36.9136,35.8378594 Z" id="Fill-1" stroke="#979797" fill="#FFFFFF"></path>
                <path d="M26.918,12.3468609 C24.8052,11.6958141 25.7444,8.32503281 25.7444,8.32503281 L19.934,10.4773922 L14.1236,8.32503281 C14.1236,8.32503281 15.0628,11.6958141 12.9492,12.3468609 C10.8356,13.0002984 5.318,18.3521109 5.4348,23.4608766 C5.5244,27.3830953 34.3428,27.3830953 34.4324,23.4608766 C34.5492,18.3521109 29.0324,13.0002984 26.918,12.3468609" id="Fill-3" fill="#F7B73E"></path>
                <path d="M25.97816,6.30184688 C25.97816,9.74833125 23.17256,12.5429719 19.71176,12.5429719 C16.25096,12.5429719 13.44536,9.74833125 13.44536,6.30184688 C13.44536,2.85456563 16.25096,0.059925 19.71176,0.059925 C23.17256,0.059925 25.97816,2.85456563 25.97816,6.30184688" id="Fill-5" fill="#F19700"></path>
                <path d="M33.78752,19.8627469 L6.08752,19.8627469 C4.80112,19.8627469 3.75712,20.9018719 3.75712,22.1832469 L3.75712,30.8038406 C3.75712,32.0860125 4.80112,33.1251375 6.08752,33.1251375 L6.40352,33.1251375 C8.92432,33.5841375 14.03232,33.8981062 19.93632,33.8981062 C25.84272,33.8981062 30.95072,33.5841375 33.47072,33.1251375 L33.78752,33.1251375 C35.07392,33.1251375 36.11792,32.0860125 36.11792,30.8038406 L36.11792,22.1832469 C36.11792,20.9018719 35.07392,19.8627469 33.78752,19.8627469" id="Fill-7" fill="#F59285"></path>
            </g>
            <g id="Group-17" transform="translate(4.000000, 19.862109)">
                <mask id="mask-2" fill="white">
                    <use xlink:href="#path-1"></use>
                </mask>
                <g id="Clip-11"></g>
                <polygon id="Fill-10" fill="#E4462D" mask="url(#mask-2)" points="0.6592 16.2156094 3.584 16.2156094 3.584 -0.7044375 0.6592 -0.7044375"></polygon>
                <polygon id="Fill-12" fill="#E4462D" mask="url(#mask-2)" points="6.1856 16.2156094 9.1104 16.2156094 9.1104 -0.7044375 6.1856 -0.7044375"></polygon>
                <polygon id="Fill-13" fill="#E4462D" mask="url(#mask-2)" points="11.712 16.2156094 14.6368 16.2156094 14.6368 -0.7044375 11.712 -0.7044375"></polygon>
                <polygon id="Fill-14" fill="#E4462D" mask="url(#mask-2)" points="17.2384 16.2156094 20.1632 16.2156094 20.1632 -0.7044375 17.2384 -0.7044375"></polygon>
                <polygon id="Fill-15" fill="#E4462D" mask="url(#mask-2)" points="22.7648 16.2156094 25.6896 16.2156094 25.6896 -0.7044375 22.7648 -0.7044375"></polygon>
                <polygon id="Fill-16" fill="#E4462D" mask="url(#mask-2)" points="28.292 16.2156094 31.2168 16.2156094 31.2168 -0.7044375 28.292 -0.7044375"></polygon>
            </g>
        </g>
    </g>
</svg>