<?xml version="1.0" encoding="UTF-8"?>
<svg width="198px" height="131px" viewBox="0 0 198 131" version="1.1" xmlns="http://www.w3.org/2000/svg" xmlns:xlink="http://www.w3.org/1999/xlink">
    <!-- Generator: Sketch 41 (35326) - http://www.bohemiancoding.com/sketch -->
    <title>question</title>
    <desc>Created with Sketch.</desc>
    <defs>
        <polygon id="path-1" points="43.1580712 0.985 0.1084 0.985 0.1084 43.0549251 43.1580712 43.0549251 43.1580712 0.985"></polygon>
        <polygon id="path-3" points="43.6739 0.985 0.624228805 0.985 0.624228805 43.0549251 43.6739 43.0549251 43.6739 0.985"></polygon>
        <polygon id="path-5" points="145.782 124.9998 145.782 0.1608 0.000256881769 0.1608 0.000256881769 124.9998 145.782 124.9998"></polygon>
    </defs>
    <g id="Page-1" stroke="none" stroke-width="1" fill="none" fill-rule="evenodd">
        <g id="question" transform="translate(0.000000, -1.000000)">
            <g id="Page-1">
                <g id="Group-3" transform="translate(101.000000, 0.015000)">
                    <mask id="mask-2" fill="white">
                        <use xlink:href="#path-1"></use>
                    </mask>
                    <g id="Clip-2"></g>
                    <path d="M0.1084,14.9336 C0.1084,14.9336 8.4974,-9.2164 29.8504,6.0366 C51.2044,21.2886 43.5784,37.9896 29.8504,42.6036 C16.1234,47.2176 0.1084,14.9336 0.1084,14.9336" id="Fill-1" fill="#404041" mask="url(#mask-2)"></path>
                </g>
                <path d="M111.4961,21.8669 C111.4961,21.8669 117.6211,7.0279 127.8291,16.3609 C138.0381,25.6949 125.4981,32.9169 125.4981,32.9169 C125.4981,32.9169 119.6631,35.2479 111.4961,21.8669" id="Fill-4" fill="#616264"></path>
                <g id="Group-8" transform="translate(1.000000, 0.015000)">
                    <mask id="mask-4" fill="white">
                        <use xlink:href="#path-3"></use>
                    </mask>
                    <g id="Clip-7"></g>
                    <path d="M43.6739,14.9336 C43.6739,14.9336 35.2849,-9.2164 13.9319,6.0366 C-7.4221,21.2886 0.2039,37.9896 13.9319,42.6036 C27.6589,47.2176 43.6739,14.9336 43.6739,14.9336" id="Fill-6" fill="#404041" mask="url(#mask-4)"></path>
                </g>
                <path d="M34.2862,21.8669 C34.2862,21.8669 28.1612,7.0279 17.9532,16.3609 C7.7442,25.6949 20.2842,32.9169 20.2842,32.9169 C20.2842,32.9169 26.1192,35.2479 34.2862,21.8669" id="Fill-9" fill="#616264"></path>
                <g id="Group-13" transform="translate(0.000000, 7.015000)">
                    <mask id="mask-6" fill="white">
                        <use xlink:href="#path-5"></use>
                    </mask>
                    <g id="Clip-12"></g>
                    <path d="M134.2645,46.1518 C127.6885,19.9478 100.8375,0.1608 72.8915,0.1608 C44.9445,0.1608 18.0935,19.9478 11.5175,46.1518 C11.5175,46.1518 -3.5855,54.8568 0.7985,79.8758 C5.1825,104.8948 24.6695,124.9998 72.8915,124.9998 C121.1135,124.9998 140.6005,104.8948 144.9845,79.8758 C149.3675,54.8568 134.2645,46.1518 134.2645,46.1518" id="Fill-11" fill="#FFFFFF" mask="url(#mask-6)"></path>
                </g>
                <path d="M48.1901,38.4932 C38.2761,38.4932 26.3281,51.4582 25.3111,61.3722 C24.2941,71.2862 35.7341,79.1662 46.1561,76.8782 C56.5791,74.5912 62.0441,58.0672 61.0271,50.1872 C60.0111,42.3062 52.4281,38.4932 48.1901,38.4932" id="Fill-14" fill="#404041"></path>
                <path d="M57.3416,54.5083 C57.3416,58.4393 54.1546,61.6263 50.2236,61.6263 C46.2926,61.6263 43.1056,58.4393 43.1056,54.5083 C43.1056,50.5773 46.2926,47.3903 50.2236,47.3903 C54.1546,47.3903 57.3416,50.5773 57.3416,54.5083" id="Fill-16" fill="#FFFFFF"></path>
                <path d="M51.05,53.2151 C51.05,53.9291 50.68,54.5081 50.224,54.5081 C49.767,54.5081 49.398,53.9291 49.398,53.2151 C49.398,52.5011 49.767,51.9221 50.224,51.9221 C50.68,51.9221 51.05,52.5011 51.05,53.2151" id="Fill-18" fill="#FFFFFF"></path>
                <path d="M97.5922,38.4932 C107.5062,38.4932 119.4542,51.4582 120.4712,61.3722 C121.4872,71.2862 110.0482,79.1662 99.6262,76.8782 C89.2032,74.5912 83.7382,58.0672 84.7542,50.1872 C85.7712,42.3062 93.3542,38.4932 97.5922,38.4932" id="Fill-20" fill="#404041"></path>
                <path d="M88.4407,54.5083 C88.4407,58.4393 91.6277,61.6263 95.5587,61.6263 C99.4897,61.6263 102.6767,58.4393 102.6767,54.5083 C102.6767,50.5773 99.4897,47.3903 95.5587,47.3903 C91.6277,47.3903 88.4407,50.5773 88.4407,54.5083" id="Fill-22" fill="#FFFFFF"></path>
                <path d="M72.8912,72.6842 C65.3622,72.6842 64.9202,76.6702 66.0272,79.1052 C67.1342,81.5412 69.7912,83.0912 72.8912,83.0912 C75.9912,83.0912 78.6482,81.5412 79.7552,79.1052 C80.8622,76.6702 80.4192,72.6842 72.8912,72.6842" id="Fill-24" fill="#404041"></path>
                <path d="M38.4142,83.2098 C38.4142,86.2108 33.2072,88.6438 26.7842,88.6438 C20.3612,88.6438 15.1542,86.2108 15.1542,83.2098 C15.1542,80.2088 20.3612,77.7758 26.7842,77.7758 C33.2072,77.7758 38.4142,80.2088 38.4142,83.2098" id="Fill-26" fill="#F38894"></path>
                <path d="M130.8822,83.1307 C130.8822,86.1317 125.6752,88.5647 119.2522,88.5647 C112.8292,88.5647 107.6222,86.1317 107.6222,83.1307 C107.6222,80.1297 112.8292,77.6967 119.2522,77.6967 C125.6752,77.6967 130.8822,80.1297 130.8822,83.1307" id="Fill-28" fill="#F38894"></path>
                <path d="M72.8913,97.0475 C72.2593,97.0475 71.7473,96.3385 71.7473,95.4635 L71.7473,81.3855 C71.7473,80.5115 72.2593,79.8025 72.8913,79.8025 C73.5233,79.8025 74.0353,80.5115 74.0353,81.3855 L74.0353,95.4635 C74.0353,96.3385 73.5233,97.0475 72.8913,97.0475" id="Fill-30" fill="#404041"></path>
                <polygon id="Fill-32" fill="#404041" points="45.0277 28.4658 59.3797 39.9828 47.6337 26.1628"></polygon>
                <polygon id="Fill-34" fill="#404041" points="100.7547 28.4658 86.4027 39.9828 98.1487 26.1628"></polygon>
                <path d="M45.8865,49.1123 C45.8865,49.1123 53.8875,50.9733 57.0505,55.8113 C57.0505,55.8113 49.1425,56.1833 45.0495,59.9043 C45.0495,59.9043 47.9335,55.0663 53.2365,55.1593 C53.2365,55.1593 49.5145,50.8803 45.8865,49.1123" id="Fill-36" fill="#404041"></path>
                <path d="M99.6049,49.1123 C99.6049,49.1123 91.6039,50.9733 88.4409,55.8113 C88.4409,55.8113 96.3489,56.1833 100.4419,59.9043 C100.4419,59.9043 97.5579,55.0663 92.2549,55.1593 C92.2549,55.1593 95.9769,50.8803 99.6049,49.1123" id="Fill-38" fill="#404041"></path>
                <path d="M81.4282,98.1179 C78.2392,96.0729 73.1592,96.3289 73.1592,96.3289 C73.1592,96.3289 68.0802,96.0729 64.8912,98.1179 C64.8912,98.1179 60.1662,113.4559 73.1592,113.4559 C86.1532,113.4559 81.4282,98.1179 81.4282,98.1179" id="Fill-40" fill="#F16B6A"></path>
                <path d="M74.887,96.3532 C73.854,96.2942 73.16,96.3282 73.16,96.3282 C73.16,96.3282 72.465,96.2942 71.431,96.3532 C72.24,97.6042 73.16,100.0822 73.16,104.8872 C73.16,104.8872 73.464,98.9602 74.887,96.3532" id="Fill-42" fill="#DA4259"></path>
                <path d="M59.9567,100.6028 C59.9567,100.6028 66.2817,96.3288 73.1597,96.3288 C80.0377,96.3288 85.8257,100.6028 85.8257,100.6028 C85.8257,100.6028 80.9287,95.1468 73.1597,95.1468 C65.3907,95.1468 59.9567,100.6028 59.9567,100.6028" id="Fill-44" fill="#404041"></path>
            </g>
            <text id="help---material" font-family="material" font-size="36" font-weight="normal" fill="#616264">
                <tspan x="148.879604" y="115.178571"></tspan>
            </text>
            <text id="help---material-copy" font-family="material" font-size="18" font-weight="normal" fill="#616264">
                <tspan x="138" y="90.3392857"></tspan>
            </text>
            <text id="help---material-copy-2" font-family="material" font-size="18" font-weight="normal" fill="#616264">
                <tspan x="154.319406" y="81.5"></tspan>
            </text>
            <text id="help---material-copy-3" font-family="material" font-size="18" font-weight="normal" fill="#616264">
                <tspan x="170.638811" y="85.9196429"></tspan>
            </text>
            <text id="help---material-copy-4" font-family="material" font-size="18" font-weight="normal" fill="#616264">
                <tspan x="181.518415" y="97.4107143"></tspan>
            </text>
        </g>
    </g>
</svg>