<?xml version="1.0" encoding="UTF-8"?>
<svg width="146px" height="131px" viewBox="0 0 146 131" version="1.1" xmlns="http://www.w3.org/2000/svg" xmlns:xlink="http://www.w3.org/1999/xlink">
    <!-- Generator: Sketch 41 (35326) - http://www.bohemiancoding.com/sketch -->
    <title>Page 1</title>
    <desc>Created with Sketch.</desc>
    <defs>
        <polygon id="path-1" points="43.1580712 0.985 0.1084 0.985 0.1084 43.0549251 43.1580712 43.0549251 43.1580712 0.985"></polygon>
        <polygon id="path-3" points="43.6739 0.985 0.624228805 0.985 0.624228805 43.0549251 43.6739 43.0549251 43.6739 0.985"></polygon>
        <polygon id="path-5" points="145.782 124.9998 145.782 0.1608 0.000256881769 0.1608 0.000256881769 124.9998 145.782 124.9998"></polygon>
    </defs>
    <g id="Page-1" stroke="none" stroke-width="1" fill="none" fill-rule="evenodd">
        <g transform="translate(0.000000, -1.000000)">
            <g id="Group-3" transform="translate(101.000000, 0.015000)">
                <mask id="mask-2" fill="white">
                    <use xlink:href="#path-1"></use>
                </mask>
                <g id="Clip-2"></g>
                <path d="M0.1084,14.9336 C0.1084,14.9336 8.4974,-9.2164 29.8504,6.0366 C51.2044,21.2886 43.5784,37.9896 29.8504,42.6036 C16.1234,47.2176 0.1084,14.9336 0.1084,14.9336" id="Fill-1" fill="#404041" mask="url(#mask-2)"></path>
            </g>
            <path d="M111.4961,21.8669 C111.4961,21.8669 117.6211,7.0279 127.8291,16.3609 C138.0381,25.6949 125.4981,32.9169 125.4981,32.9169 C125.4981,32.9169 119.6631,35.2469 111.4961,21.8669" id="Fill-4" fill="#616264"></path>
            <g id="Group-8" transform="translate(1.000000, 0.015000)">
                <mask id="mask-4" fill="white">
                    <use xlink:href="#path-3"></use>
                </mask>
                <g id="Clip-7"></g>
                <path d="M43.6739,14.9336 C43.6739,14.9336 35.2849,-9.2164 13.9319,6.0366 C-7.4221,21.2886 0.2039,37.9896 13.9319,42.6036 C27.6589,47.2176 43.6739,14.9336 43.6739,14.9336" id="Fill-6" fill="#404041" mask="url(#mask-4)"></path>
            </g>
            <path d="M34.2862,21.8669 C34.2862,21.8669 28.1612,7.0279 17.9532,16.3609 C7.7442,25.6949 20.2842,32.9169 20.2842,32.9169 C20.2842,32.9169 26.1192,35.2469 34.2862,21.8669" id="Fill-9" fill="#616264"></path>
            <g id="Group-13" transform="translate(0.000000, 7.015000)">
                <mask id="mask-6" fill="white">
                    <use xlink:href="#path-5"></use>
                </mask>
                <g id="Clip-12"></g>
                <path d="M134.2645,46.1518 C127.6885,19.9478 100.8375,0.1608 72.8915,0.1608 C44.9445,0.1608 18.0935,19.9478 11.5175,46.1518 C11.5175,46.1518 -3.5855,54.8568 0.7985,79.8758 C5.1825,104.8948 24.6695,124.9998 72.8915,124.9998 C121.1135,124.9998 140.6005,104.8948 144.9845,79.8758 C149.3675,54.8568 134.2645,46.1518 134.2645,46.1518" id="Fill-11" fill="#FFFFFF" mask="url(#mask-6)"></path>
            </g>
            <path d="M48.1901,25.9099 C38.2761,25.9099 26.3281,38.8749 25.3111,48.7889 C24.2941,58.7029 35.7341,66.5829 46.1561,64.2949 C56.5791,62.0079 62.0441,45.4839 61.0271,37.6039 C60.0111,29.7229 52.4281,25.9099 48.1901,25.9099" id="Fill-14" fill="#404041"></path>
            <path d="M57.3416,41.925 C57.3416,45.856 54.1546,49.043 50.2236,49.043 C46.2926,49.043 43.1056,45.856 43.1056,41.925 C43.1056,37.994 46.2926,34.807 50.2236,34.807 C54.1546,34.807 57.3416,37.994 57.3416,41.925" id="Fill-16" fill="#FFFFFF"></path>
            <path d="M97.5922,25.9099 C107.5062,25.9099 119.4542,38.8749 120.4712,48.7889 C121.4872,58.7029 110.0482,66.5829 99.6262,64.2949 C89.2032,62.0079 83.7382,45.4839 84.7542,37.6039 C85.7712,29.7229 93.3542,25.9099 97.5922,25.9099" id="Fill-18" fill="#404041"></path>
            <path d="M88.4407,41.925 C88.4407,45.856 91.6277,49.043 95.5587,49.043 C99.4897,49.043 102.6767,45.856 102.6767,41.925 C102.6767,37.994 99.4897,34.807 95.5587,34.807 C91.6277,34.807 88.4407,37.994 88.4407,41.925" id="Fill-20" fill="#FFFFFF"></path>
            <path d="M94.7323,40.6318 C94.7323,41.3458 95.1023,41.9248 95.5583,41.9248 C96.0153,41.9248 96.3843,41.3458 96.3843,40.6318 C96.3843,39.9178 96.0153,39.3388 95.5583,39.3388 C95.1023,39.3388 94.7323,39.9178 94.7323,40.6318" id="Fill-22" fill="#FFFFFF"></path>
            <path d="M72.8911,60.4822 C65.3631,60.4822 64.9201,64.4682 66.0271,66.9032 C67.1341,69.3392 69.7911,70.8892 72.8911,70.8892 C75.9911,70.8892 78.6481,69.3392 79.7551,66.9032 C80.8621,64.4682 80.4191,60.4822 72.8911,60.4822" id="Fill-24" fill="#404041"></path>
            <path d="M38.4142,70.2452 C38.4142,73.2462 33.2072,75.6792 26.7842,75.6792 C20.3612,75.6792 15.1542,73.2462 15.1542,70.2452 C15.1542,67.2442 20.3612,64.8112 26.7842,64.8112 C33.2072,64.8112 38.4142,67.2442 38.4142,70.2452" id="Fill-26" fill="#F38894"></path>
            <path d="M130.8822,70.1661 C130.8822,73.1671 125.6752,75.6001 119.2522,75.6001 C112.8292,75.6001 107.6222,73.1671 107.6222,70.1661 C107.6222,67.1651 112.8292,64.7321 119.2522,64.7321 C125.6752,64.7321 130.8822,67.1651 130.8822,70.1661" id="Fill-28" fill="#F38894"></path>
            <path d="M72.8913,82.3439 C72.2593,82.3439 71.7473,81.8319 71.7473,81.1999 L71.7473,71.0319 C71.7473,70.3999 72.2593,69.8879 72.8913,69.8879 C73.5233,69.8879 74.0353,70.3999 74.0353,71.0319 L74.0353,81.1999 C74.0353,81.8319 73.5233,82.3439 72.8913,82.3439" id="Fill-30" fill="#404041"></path>
            <path d="M45.9331,36.8607 C45.9331,36.8607 52.8771,38.4757 55.6221,42.6737 C55.6221,42.6737 48.7591,42.9967 45.2061,46.2267 C45.2061,46.2267 47.7091,42.0277 52.3121,42.1087 C52.3121,42.1087 49.0821,38.3947 45.9331,36.8607" id="Fill-32" fill="#404041"></path>
            <path d="M99.5948,36.8607 C99.5948,36.8607 92.6508,38.4757 89.9058,42.6737 C89.9058,42.6737 96.7688,42.9967 100.3218,46.2267 C100.3218,46.2267 97.8188,42.0277 93.2158,42.1087 C93.2158,42.1087 96.4458,38.3947 99.5948,36.8607" id="Fill-34" fill="#404041"></path>
            <path d="M115.0672,81.3888 L72.8912,81.3888 L30.7152,81.3888 C23.7792,126.6878 72.8912,124.4988 72.8912,124.4988 C72.8912,124.4988 122.0042,126.6878 115.0672,81.3888" id="Fill-36" fill="#ED2835"></path>
            <path d="M72.9808,89.8006 L104.5378,89.8006 C105.7928,89.8006 107.2998,89.4236 107.5508,88.1686 C107.7368,87.2376 108.2678,83.3436 108.5298,81.3886 L72.8908,81.3886 L37.2528,81.3886 C37.5148,83.3436 38.0458,87.2376 38.2318,88.1686 C38.4828,89.4236 39.9898,89.8006 41.2448,89.8006 L72.8018,89.8006 L72.9808,89.8006 Z" id="Fill-38" fill="#E6E7E8"></path>
            <polygon id="Fill-40" fill="#404041" points="53.6812 22.7976 59.7822 30.1616 57.5632 20.2476"></polygon>
            <polygon id="Fill-42" fill="#404041" points="92.1013 22.7976 86.0003 30.1616 88.2193 20.2476"></polygon>
        </g>
    </g>
</svg>