<?xml version="1.0" encoding="UTF-8"?>
<svg width="80px" height="89px" viewBox="0 0 80 89" version="1.1" xmlns="http://www.w3.org/2000/svg" xmlns:xlink="http://www.w3.org/1999/xlink">
    <!-- Generator: Sketch 41 (35326) - http://www.bohemiancoding.com/sketch -->
    <title>apple</title>
    <desc>Created with Sketch.</desc>
    <defs></defs>
    <g id="Page-1" stroke="none" stroke-width="1" fill="none" fill-rule="evenodd">
        <g id="apple" transform="translate(0.000000, -4.000000)">
            <path d="M40,93 C62.09139,93 80,75.7629629 80,54.5 C80,43.3221648 78.5,37.5 68.5,33 C58.5,28.5 50.1975556,40.7687442 40,36.5 C18.5,27.5 0,33.2370371 0,54.5 C0,75.7629629 17.90861,93 40,93 Z" id="Oval-6" fill="#EC1C24"></path>
            <ellipse id="Oval-7" fill="#FFFFFF" transform="translate(10.500000, 49.500000) rotate(16.000000) translate(-10.500000, -49.500000) " cx="10.5" cy="49.5" rx="3.5" ry="7.5"></ellipse>
            <path d="M17,9 C35.0073521,10.801089 49.6450937,26.2451643 41.5683594,49.6289062" id="Path-2" stroke="#8B572A" stroke-width="3"></path>
            <path d="M48.7035534,30.3907709 C53.0153831,30.3907709 56.5108117,27.3617199 56.5108117,19.7728996 C56.5108117,12.1840794 53.0153831,1.34777011 48.7035534,1.34777011 C44.3917237,1.34777011 40.8962951,12.1840794 40.8962951,19.7728996 C40.8962951,27.3617199 44.3917237,30.3907709 48.7035534,30.3907709 Z" id="Oval-8" fill="#B8E986" transform="translate(48.703553, 15.869270) rotate(44.000000) translate(-48.703553, -15.869270) "></path>
        </g>
    </g>
</svg>