<?xml version="1.0" encoding="UTF-8"?>
<svg width="107px" height="100px" viewBox="0 0 107 100" version="1.1" xmlns="http://www.w3.org/2000/svg" xmlns:xlink="http://www.w3.org/1999/xlink">
    <!-- Generator: Sketch 41 (35326) - http://www.bohemiancoding.com/sketch -->
    <title>bamboo</title>
    <desc>Created with Sketch.</desc>
    <defs></defs>
    <g id="Page-1" stroke="none" stroke-width="1" fill="none" fill-rule="evenodd">
        <g id="bamboo">
            <g id="bamboo-copy-2" transform="translate(0.000000, 23.588235)">
                <path d="M18.7274884,4.58644365 C20.5465605,-0.631645436 23.4924585,-0.641400027 25.3149311,4.58644365 L42.1053934,52.7506311 C43.9244655,57.9687201 41.138477,63.5568131 35.8736739,65.2348673 L22.0214676,69.6499904 L8.16895576,65.2348673 C2.908084,63.5581031 0.114553529,57.9784747 1.93702613,52.7506311 L18.7274884,4.58644365 Z" id="Triangle-Copy-2" stroke="#FFFFFF" fill="#7ED321"></path>
                <path d="M0.407894737,44.3898501 C15.3800171,45.716404 21.3772032,53.8518963 25.5488722,65.704729" id="Path-3" stroke="#FFFFFF"></path>
                <path d="M3.42481203,29.1649366 C15.5139236,30.1124751 20.3563,35.923541 23.7246782,44.3898501" id="Path-3-Copy-2" stroke="#FFFFFF"></path>
                <path d="M3.42481203,9.88004614 C15.5139236,10.8275847 20.3563,16.6386506 23.7246782,25.1049596" id="Path-3-Copy-4" stroke="#FFFFFF"></path>
                <path d="M19.5150376,39.3148789 C29.6960808,40.2624174 33.7741674,46.0734834 36.6109023,54.5397924" id="Path-3-Copy" stroke="#FFFFFF" transform="translate(28.062970, 46.927336) scale(-1, 1) translate(-28.062970, -46.927336) "></path>
                <path d="M19.5150376,20.0299885 C29.6960808,20.977527 33.7741674,26.7885929 36.6109023,35.254902" id="Path-3-Copy-3" stroke="#FFFFFF" transform="translate(28.062970, 27.642445) scale(-1, 1) translate(-28.062970, -27.642445) "></path>
                <path d="M23.537594,4.80507497 C33.7186372,5.75261349 37.7967238,11.5636795 40.6334586,20.0299885" id="Path-3-Copy-5" stroke="#FFFFFF" transform="translate(32.085526, 12.417532) scale(-1, 1) translate(-32.085526, -12.417532) "></path>
                <path d="M3.25902786,41.0014153 C3.41183101,40.178884 3.65914593,40.1765805 3.81237699,41.0014153 L4.76748651,46.1427198 C4.92028965,46.9652511 4.37460935,47.6320445 3.53570243,47.6320445 L3.53570243,47.6320445 C2.70260372,47.6320445 2.15068728,46.9675546 2.30391835,46.1427198 L3.25902786,41.0014153 Z" id="Triangle" fill="#7ED321" transform="translate(3.535744, 44.007849) rotate(-36.000000) translate(-3.535744, -44.007849) "></path>
                <path d="M37.4507572,33.8964557 C37.6035603,33.0739243 37.8508753,33.0716209 38.0041063,33.8964557 L38.9592158,39.0377601 C39.112019,39.8602915 38.5663387,40.5270848 37.7274318,40.5270848 L37.7274318,40.5270848 C36.894333,40.5270848 36.3424166,39.8625949 36.4956477,39.0377601 L37.4507572,33.8964557 Z" id="Triangle-Copy-6" fill="#7ED321" transform="translate(37.727473, 36.902889) scale(-1, 1) rotate(-36.000000) translate(-37.727473, -36.902889) "></path>
                <path d="M9.29286245,24.7615076 C9.44566559,23.9389762 9.69298052,23.9366728 9.84621158,24.7615076 L10.8013211,29.902812 C10.9541242,30.7253434 10.4084439,31.3921367 9.56953701,31.3921367 L9.56953701,31.3921367 C8.73643831,31.3921367 8.18452187,30.7276468 8.33775293,29.902812 L9.29286245,24.7615076 Z" id="Triangle-Copy" fill="#7ED321" transform="translate(9.569578, 27.767941) rotate(-36.000000) translate(-9.569578, -27.767941) "></path>
                <path d="M32.4225617,16.6415537 C32.5753648,15.8190224 32.8226798,15.8167189 32.9759108,16.6415537 L33.9310203,21.7828582 C34.0838235,22.6053895 33.5381432,23.2721829 32.6992363,23.2721829 L32.6992363,23.2721829 C31.8661376,23.2721829 31.3142211,22.607693 31.4674522,21.7828582 L32.4225617,16.6415537 Z" id="Triangle-Copy-5" fill="#7ED321" transform="translate(32.699278, 19.647987) scale(-1, 1) rotate(-36.000000) translate(-32.699278, -19.647987) "></path>
                <path d="M14.4514466,10.345436 C14.5573417,9.77540814 14.728735,9.7738118 14.8349267,10.345436 L15.4968335,13.9084455 C15.6027286,14.4784733 15.2245631,14.9405722 14.6431866,14.9405722 L14.6431866,14.9405722 C14.0658354,14.9405722 13.6833481,14.4800697 13.7895398,13.9084455 L14.4514466,10.345436 Z" id="Triangle-Copy-3" fill="#7ED321" transform="translate(14.643215, 12.428944) rotate(-36.000000) translate(-14.643215, -12.428944) "></path>
                <path d="M28.5303939,8.31544755 C28.636289,7.74541968 28.8076824,7.74382333 28.9138741,8.31544755 L29.5757808,11.878457 C29.681676,12.4484849 29.3035104,12.9105838 28.722134,12.9105838 L28.722134,12.9105838 C28.1447827,12.9105838 27.7622955,12.4500812 27.8684872,11.878457 L28.5303939,8.31544755 Z" id="Triangle-Copy-4" fill="#7ED321" transform="translate(28.722163, 10.398956) scale(-1, 1) rotate(-36.000000) translate(-28.722163, -10.398956) "></path>
            </g>
            <g transform="translate(23.342105, 0.000000)">
                <path d="M27.9478784,4.6367952 C29.7763621,-0.57423265 32.7392385,-0.579024715 34.5694037,4.6367952 L60.6769454,79.041136 C62.5054291,84.2521638 59.7257906,89.8261196 54.4552447,91.4950959 L31.259002,98.8404412 L8.06224761,91.4950959 C2.79749739,89.8279916 0.0101715347,84.2569559 1.84033674,79.041136 L27.9478784,4.6367952 Z" id="Triangle-Copy-2" stroke="#FFFFFF" fill="#7ED321"></path>
                <path d="M1,63.7058824 C21.9609713,65.5509983 30.3570319,76.8667285 36.1973684,93.3529412" id="Path-3" stroke="#FFFFFF"></path>
                <path d="M5.22368421,42.5294118 C22.1484403,43.8473517 28.9277673,51.9300162 33.6434969,63.7058824" id="Path-3-Copy-2" stroke="#FFFFFF"></path>
                <path d="M5.22368421,15.7058824 C22.1484403,17.0238223 28.9277673,25.1064868 33.6434969,36.8823529" id="Path-3-Copy-4" stroke="#FFFFFF"></path>
                <path d="M27.75,56.6470588 C42.0034605,57.9649988 47.7127817,66.0476632 51.6842105,77.8235294" id="Path-3-Copy" stroke="#FFFFFF" transform="translate(39.717105, 67.235294) scale(-1, 1) translate(-39.717105, -67.235294) "></path>
                <path d="M27.75,29.8235294 C42.0034605,31.1414693 47.7127817,39.2241338 51.6842105,51" id="Path-3-Copy-3" stroke="#FFFFFF" transform="translate(39.717105, 40.411765) scale(-1, 1) translate(-39.717105, -40.411765) "></path>
                <path d="M33.3815789,8.64705882 C47.6350394,9.96499876 53.3443606,18.0476632 57.3157895,29.8235294" id="Path-3-Copy-5" stroke="#FFFFFF" transform="translate(45.348684, 19.235294) scale(-1, 1) translate(-45.348684, -19.235294) "></path>
                <path d="M4.99158638,58.9928776 C5.20551078,57.8488113 5.55175167,57.8456074 5.76627516,58.9928776 L7.10342848,66.1439648 C7.31735288,67.288031 6.55340045,68.21548 5.37893077,68.21548 L5.37893077,68.21548 C4.21259258,68.21548 3.43990957,67.291235 3.65443305,66.1439648 L4.99158638,58.9928776 Z" id="Triangle" fill="#7ED321" transform="translate(5.378989, 63.174553) rotate(-36.000000) translate(-5.378989, -63.174553) "></path>
                <path d="M52.8600074,49.1105247 C53.0739318,47.9664584 53.4201727,47.9632545 53.6346962,49.1105247 L54.9718495,56.2616118 C55.1857739,57.4056781 54.4218215,58.3331271 53.2473518,58.3331271 L53.2473518,58.3331271 C52.0810136,58.3331271 51.3083306,57.408882 51.5228541,56.2616118 L52.8600074,49.1105247 Z" id="Triangle-Copy-6" fill="#7ED321" transform="translate(53.247410, 53.292200) scale(-1, 1) rotate(-36.000000) translate(-53.247410, -53.292200) "></path>
                <path d="M13.4389548,36.4046423 C13.6528792,35.260576 13.9991201,35.2573721 14.2136436,36.4046423 L15.5507969,43.5557295 C15.7647213,44.6997958 15.0007689,45.6272447 13.8262992,45.6272447 L13.8262992,45.6272447 C12.659961,45.6272447 11.887278,44.7029997 12.1018015,43.5557295 L13.4389548,36.4046423 Z" id="Triangle-Copy" fill="#7ED321" transform="translate(13.826357, 40.586318) rotate(-36.000000) translate(-13.826357, -40.586318) "></path>
                <path d="M45.8205337,25.1105247 C46.0344581,23.9664584 46.380699,23.9632545 46.5952225,25.1105247 L47.9323759,32.2616118 C48.1463003,33.4056781 47.3823478,34.3331271 46.2078781,34.3331271 L46.2078781,34.3331271 C45.0415399,34.3331271 44.2688569,33.408882 44.4833804,32.2616118 L45.8205337,25.1105247 Z" id="Triangle-Copy-5" fill="#7ED321" transform="translate(46.207936, 29.292200) scale(-1, 1) rotate(-36.000000) translate(-46.207936, -29.292200) "></path>
                <path d="M20.6609725,16.3531974 C20.8092257,15.5603404 21.0491764,15.55812 21.1978447,16.3531974 L22.1245142,21.3090196 C22.2727674,22.1018766 21.7433357,22.7446141 20.9294086,22.7446141 L20.9294086,22.7446141 C20.1211169,22.7446141 19.5856347,22.1040969 19.7343031,21.3090196 L20.6609725,16.3531974 Z" id="Triangle-Copy-3" fill="#7ED321" transform="translate(20.929449, 19.251168) rotate(-36.000000) translate(-20.929449, -19.251168) "></path>
                <path d="M40.3714989,13.529668 C40.519752,12.736811 40.7597027,12.7345906 40.9083711,13.529668 L41.8350405,18.4854902 C41.9832937,19.2783471 41.453862,19.9210847 40.639935,19.9210847 L40.639935,19.9210847 C39.8316432,19.9210847 39.296161,19.2805675 39.4448294,18.4854902 L40.3714989,13.529668 Z" id="Triangle-Copy-4" fill="#7ED321" transform="translate(40.639975, 16.427639) scale(-1, 1) rotate(-36.000000) translate(-40.639975, -16.427639) "></path>
            </g>
            <g id="bamboo-copy" transform="translate(63.355263, 29.235294)">
                <path d="M18.7336622,4.42056111 C20.5493246,-0.799584143 23.4924585,-0.801413905 25.3087573,4.42056111 L42.1115672,52.7297128 C43.9272296,57.9498581 41.138477,63.5427042 35.8736739,65.2245723 L22.0214676,69.6497297 L8.16895576,65.2245723 C2.908084,63.5439972 0.114553529,57.9516878 1.93085232,52.7297128 L18.7336622,4.42056111 Z" id="Triangle-Copy-2" stroke="#FFFFFF" fill="#7ED321"></path>
                <path d="M0.407894737,44.3321799 C15.3800171,45.6617487 21.3772032,53.8157309 25.5488722,65.6955017" id="Path-3" stroke="#FFFFFF"></path>
                <path d="M3.42481203,29.0726644 C15.5139236,30.0223564 20.3563,35.8466293 23.7246782,44.3321799" id="Path-3-Copy-2" stroke="#FFFFFF"></path>
                <path d="M3.42481203,9.74394464 C15.5139236,10.6936366 20.3563,16.5179096 23.7246782,25.0034602" id="Path-3-Copy-4" stroke="#FFFFFF"></path>
                <path d="M19.5150376,39.2456747 C29.6960808,40.1953668 33.7741674,46.0196397 36.6109023,54.5051903" id="Path-3-Copy" stroke="#FFFFFF" transform="translate(28.062970, 46.875433) scale(-1, 1) translate(-28.062970, -46.875433) "></path>
                <path d="M19.5150376,19.916955 C29.6960808,20.866647 33.7741674,26.69092 36.6109023,35.1764706" id="Path-3-Copy-3" stroke="#FFFFFF" transform="translate(28.062970, 27.546713) scale(-1, 1) translate(-28.062970, -27.546713) "></path>
                <path d="M23.537594,4.65743945 C33.7186372,5.60713146 37.7967238,11.4314044 40.6334586,19.916955" id="Path-3-Copy-5" stroke="#FFFFFF" transform="translate(32.085526, 12.287197) scale(-1, 1) translate(-32.085526, -12.287197) "></path>
                <path d="M3.25902786,40.9360442 C3.41183101,40.1116435 3.65914593,40.1093348 3.81237699,40.9360442 L4.76748651,46.0890334 C4.92028965,46.9134341 4.37460935,47.581743 3.53570243,47.581743 L3.53570243,47.581743 C2.70260372,47.581743 2.15068728,46.9157428 2.30391835,46.0890334 L3.25902786,40.9360442 Z" id="Triangle" fill="#7ED321" transform="translate(3.535744, 43.949310) rotate(-36.000000) translate(-3.535744, -43.949310) "></path>
                <path d="M37.4507572,33.8149369 C37.6035603,32.9905362 37.8508753,32.9882275 38.0041063,33.8149369 L38.9592158,38.9679262 C39.112019,39.7923269 38.5663387,40.4606357 37.7274318,40.4606357 L37.7274318,40.4606357 C36.894333,40.4606357 36.3424166,39.7946356 36.4956477,38.9679262 L37.4507572,33.8149369 Z" id="Triangle-Copy-6" fill="#7ED321" transform="translate(37.727473, 36.828203) scale(-1, 1) rotate(-36.000000) translate(-37.727473, -36.828203) "></path>
                <path d="M9.29286245,24.6592276 C9.44566559,23.8348269 9.69298052,23.8325181 9.84621158,24.6592276 L10.8013211,29.8122168 C10.9541242,30.6366175 10.4084439,31.3049263 9.56953701,31.3049263 L9.56953701,31.3049263 C8.73643831,31.3049263 8.18452187,30.6389262 8.33775293,29.8122168 L9.29286245,24.6592276 Z" id="Triangle-Copy" fill="#7ED321" transform="translate(9.569578, 27.672494) rotate(-36.000000) translate(-9.569578, -27.672494) "></path>
                <path d="M32.4225617,16.5208193 C32.5753648,15.6964186 32.8226798,15.6941098 32.9759108,16.5208193 L33.9310203,21.6738085 C34.0838235,22.4982092 33.5381432,23.166518 32.6992363,23.166518 L32.6992363,23.166518 C31.8661376,23.166518 31.3142211,22.5005179 31.4674522,21.6738085 L32.4225617,16.5208193 Z" id="Triangle-Copy-5" fill="#7ED321" transform="translate(32.699278, 19.534085) scale(-1, 1) rotate(-36.000000) translate(-32.699278, -19.534085) "></path>
                <path d="M14.4514466,10.2103922 C14.5573417,9.63906883 14.728735,9.63746886 14.8349267,10.2103922 L15.4968335,13.7814994 C15.6027286,14.3528228 15.2245631,14.8159719 14.6431866,14.8159719 L14.6431866,14.8159719 C14.0658354,14.8159719 13.6833481,14.3544228 13.7895398,13.7814994 L14.4514466,10.2103922 Z" id="Triangle-Copy-3" fill="#7ED321" transform="translate(14.643215, 12.298636) rotate(-36.000000) translate(-14.643215, -12.298636) "></path>
                <path d="M28.5303939,8.17579014 C28.636289,7.60446675 28.8076824,7.60286678 28.9138741,8.17579014 L29.5757808,11.7468973 C29.681676,12.3182207 29.3035104,12.7813699 28.722134,12.7813699 L28.722134,12.7813699 C28.1447827,12.7813699 27.7622955,12.3198207 27.8684872,11.7468973 L28.5303939,8.17579014 Z" id="Triangle-Copy-4" fill="#7ED321" transform="translate(28.722163, 10.264034) scale(-1, 1) rotate(-36.000000) translate(-28.722163, -10.264034) "></path>
            </g>
        </g>
    </g>
</svg>