<?xml version="1.0" encoding="UTF-8"?>
<svg width="146px" height="131px" viewBox="0 0 146 131" version="1.1" xmlns="http://www.w3.org/2000/svg" xmlns:xlink="http://www.w3.org/1999/xlink">
    <!-- Generator: Sketch 41 (35326) - http://www.bohemiancoding.com/sketch -->
    <title>Page 1</title>
    <desc>Created with Sketch.</desc>
    <defs>
        <polygon id="path-1" points="43.1578393 0.985 0.1085 0.985 0.1085 43.0549251 43.1578393 43.0549251 43.1578393 0.985"></polygon>
        <polygon id="path-3" points="43.6739 0.985 0.624560687 0.985 0.624560687 43.0549251 43.6739 43.0549251 43.6739 0.985"></polygon>
        <polygon id="path-5" points="145.782 124.9998 145.782 0.1608 0.000256881769 0.1608 0.000256881769 124.9998 145.782 124.9998"></polygon>
    </defs>
    <g id="Page-1" stroke="none" stroke-width="1" fill="none" fill-rule="evenodd">
        <g transform="translate(0.000000, -1.000000)">
            <g id="Group-3" transform="translate(101.000000, 0.015000)">
                <mask id="mask-2" fill="white">
                    <use xlink:href="#path-1"></use>
                </mask>
                <g id="Clip-2"></g>
                <path d="M0.1085,14.9336 C0.1085,14.9336 8.4975,-9.2164 29.8505,6.0366 C51.2045,21.2886 43.5775,37.9896 29.8505,42.6036 C16.1235,47.2176 0.1085,14.9336 0.1085,14.9336" id="Fill-1" fill="#404041" mask="url(#mask-2)"></path>
            </g>
            <path d="M111.4962,21.8669 C111.4962,21.8669 117.6212,7.0279 127.8292,16.3609 C138.0382,25.6949 125.4982,32.9169 125.4982,32.9169 C125.4982,32.9169 119.6632,35.2469 111.4962,21.8669" id="Fill-4" fill="#616264"></path>
            <g id="Group-8" transform="translate(1.000000, 0.015000)">
                <mask id="mask-4" fill="white">
                    <use xlink:href="#path-3"></use>
                </mask>
                <g id="Clip-7"></g>
                <path d="M43.6739,14.9336 C43.6739,14.9336 35.2849,-9.2164 13.9319,6.0366 C-7.4221,21.2886 0.2049,37.9896 13.9319,42.6036 C27.6589,47.2176 43.6739,14.9336 43.6739,14.9336" id="Fill-6" fill="#404041" mask="url(#mask-4)"></path>
            </g>
            <path d="M34.2861,21.8669 C34.2861,21.8669 28.1611,7.0279 17.9531,16.3609 C7.7441,25.6949 20.2841,32.9169 20.2841,32.9169 C20.2841,32.9169 26.1191,35.2469 34.2861,21.8669" id="Fill-9" fill="#616264"></path>
            <g id="Group-13" transform="translate(0.000000, 7.015000)">
                <mask id="mask-6" fill="white">
                    <use xlink:href="#path-5"></use>
                </mask>
                <g id="Clip-12"></g>
                <path d="M134.2645,46.1518 C127.6885,19.9478 100.8375,0.1608 72.8915,0.1608 C44.9445,0.1608 18.0935,19.9478 11.5175,46.1518 C11.5175,46.1518 -3.5855,54.8568 0.7985,79.8758 C5.1825,104.8948 24.6695,124.9998 72.8915,124.9998 C121.1135,124.9998 140.6005,104.8948 144.9845,79.8758 C149.3675,54.8568 134.2645,46.1518 134.2645,46.1518" id="Fill-11" fill="#FFFFFF" mask="url(#mask-6)"></path>
            </g>
            <path d="M48.19,38.4932 C38.276,38.4932 26.328,51.4582 25.311,61.3722 C24.295,71.2862 35.734,79.1662 46.156,76.8782 C56.579,74.5912 62.044,58.0672 61.028,50.1872 C60.011,42.3062 52.428,38.4932 48.19,38.4932" id="Fill-14" fill="#404041"></path>
            <path d="M97.5921,38.4932 C107.5061,38.4932 119.4541,51.4582 120.4711,61.3722 C121.4881,71.2862 110.0481,79.1662 99.6261,76.8782 C89.2031,74.5912 83.7381,58.0672 84.7551,50.1872 C85.7711,42.3062 93.3541,38.4932 97.5921,38.4932" id="Fill-16" fill="#404041"></path>
            <path d="M72.8912,72.6842 C65.3622,72.6842 64.9202,76.6702 66.0272,79.1052 C67.1342,81.5412 69.7912,83.0912 72.8912,83.0912 C75.9912,83.0912 78.6482,81.5412 79.7552,79.1052 C80.8622,76.6702 80.4192,72.6842 72.8912,72.6842" id="Fill-18" fill="#404041"></path>
            <path d="M38.4142,83.2098 C38.4142,86.2108 33.2072,88.6438 26.7842,88.6438 C20.3612,88.6438 15.1542,86.2108 15.1542,83.2098 C15.1542,80.2088 20.3612,77.7758 26.7842,77.7758 C33.2072,77.7758 38.4142,80.2088 38.4142,83.2098" id="Fill-20" fill="#F38894"></path>
            <path d="M130.8822,83.1307 C130.8822,86.1317 125.6752,88.5647 119.2522,88.5647 C112.8292,88.5647 107.6222,86.1317 107.6222,83.1307 C107.6222,80.1297 112.8292,77.6967 119.2522,77.6967 C125.6752,77.6967 130.8822,80.1297 130.8822,83.1307" id="Fill-22" fill="#F38894"></path>
            <path d="M72.8913,92.258 C72.2593,92.258 71.7473,91.746 71.7473,91.114 L71.7473,80.946 C71.7473,80.314 72.2593,79.802 72.8913,79.802 C73.5233,79.802 74.0353,80.314 74.0353,80.946 L74.0353,91.114 C74.0353,91.746 73.5233,92.258 72.8913,92.258" id="Fill-24" fill="#404041"></path>
            <path d="M50.2238,40.1956 C48.8738,53.5626 35.6408,54.5086 35.6408,54.5086 C35.6408,54.5086 48.8738,55.4536 50.2238,68.8206 C51.5738,55.4536 64.8068,54.5086 64.8068,54.5086 C64.8068,54.5086 51.5738,53.5626 50.2238,40.1956" id="Fill-26" fill="#F7921E"></path>
            <path d="M95.5585,40.1956 C94.2085,53.5626 80.9755,54.5086 80.9755,54.5086 C80.9755,54.5086 94.2085,55.4536 95.5585,68.8206 C96.9085,55.4536 110.1415,54.5086 110.1415,54.5086 C110.1415,54.5086 96.9085,53.5626 95.5585,40.1956" id="Fill-28" fill="#F7921E"></path>
            <path d="M81.5804,106.957 C81.5804,115.707 77.6904,122.8 72.8914,122.8 C68.0924,122.8 64.2024,115.707 64.2024,106.957 C64.2024,98.207 68.0924,91.114 72.8914,91.114 C77.6904,91.114 81.5804,98.207 81.5804,106.957" id="Fill-30" fill="#ED2835"></path>
            <path d="M43.0007,21.8892 C43.0007,21.8892 51.0357,10.3382 58.0667,21.8892 C58.0667,21.8892 51.2867,14.3562 43.0007,21.8892" id="Fill-32" fill="#212121"></path>
            <path d="M87.7156,21.8892 C87.7156,21.8892 95.7506,10.3382 102.7816,21.8892 C102.7816,21.8892 96.0016,14.3562 87.7156,21.8892" id="Fill-34" fill="#212121"></path>
        </g>
    </g>
</svg>