<?xml version="1.0" encoding="UTF-8"?>
<svg width="146px" height="131px" viewBox="0 0 146 131" version="1.1" xmlns="http://www.w3.org/2000/svg" xmlns:xlink="http://www.w3.org/1999/xlink">
    <!-- Generator: Sketch 41 (35326) - http://www.bohemiancoding.com/sketch -->
    <title>Page 1</title>
    <desc>Created with Sketch.</desc>
    <defs>
        <polygon id="path-1" points="43.1580712 0.985 0.1084 0.985 0.1084 43.0548251 43.1580712 43.0548251 43.1580712 0.985"></polygon>
        <polygon id="path-3" points="43.6739 0.985 0.624228805 0.985 0.624228805 43.0548251 43.6739 43.0548251 43.6739 0.985"></polygon>
        <polygon id="path-5" points="145.782 124.9997 145.782 0.1607 0.000256881769 0.1607 0.000256881769 124.9997 145.782 124.9997"></polygon>
    </defs>
    <g id="Page-1" stroke="none" stroke-width="1" fill="none" fill-rule="evenodd">
        <g transform="translate(0.000000, -1.000000)">
            <g id="Group-3" transform="translate(101.000000, 0.015000)">
                <mask id="mask-2" fill="white">
                    <use xlink:href="#path-1"></use>
                </mask>
                <g id="Clip-2"></g>
                <path d="M0.1084,14.9335 C0.1084,14.9335 8.4974,-9.2165 29.8504,6.0365 C51.2044,21.2885 43.5784,37.9895 29.8504,42.6035 C16.1234,47.2175 0.1084,14.9335 0.1084,14.9335" id="Fill-1" fill="#404041" mask="url(#mask-2)"></path>
            </g>
            <path d="M111.4961,21.8668 C111.4961,21.8668 117.6211,7.0278 127.8291,16.3608 C138.0381,25.6948 125.4981,32.9168 125.4981,32.9168 C125.4981,32.9168 119.6631,35.2478 111.4961,21.8668" id="Fill-4" fill="#616264"></path>
            <g id="Group-8" transform="translate(1.000000, 0.015000)">
                <mask id="mask-4" fill="white">
                    <use xlink:href="#path-3"></use>
                </mask>
                <g id="Clip-7"></g>
                <path d="M43.6739,14.9335 C43.6739,14.9335 35.2849,-9.2165 13.9319,6.0365 C-7.4221,21.2885 0.2039,37.9895 13.9319,42.6035 C27.6589,47.2175 43.6739,14.9335 43.6739,14.9335" id="Fill-6" fill="#404041" mask="url(#mask-4)"></path>
            </g>
            <path d="M34.2862,21.8668 C34.2862,21.8668 28.1612,7.0278 17.9532,16.3608 C7.7442,25.6948 20.2842,32.9168 20.2842,32.9168 C20.2842,32.9168 26.1192,35.2478 34.2862,21.8668" id="Fill-9" fill="#616264"></path>
            <g id="Group-13" transform="translate(0.000000, 7.015000)">
                <mask id="mask-6" fill="white">
                    <use xlink:href="#path-5"></use>
                </mask>
                <g id="Clip-12"></g>
                <path d="M134.2645,46.1517 C127.6885,19.9477 100.8375,0.1607 72.8915,0.1607 C44.9445,0.1607 18.0935,19.9477 11.5175,46.1517 C11.5175,46.1517 -3.5855,54.8567 0.7985,79.8757 C5.1825,104.8947 24.6695,124.9997 72.8915,124.9997 C121.1135,124.9997 140.6005,104.8947 144.9845,79.8757 C149.3675,54.8567 134.2645,46.1517 134.2645,46.1517" id="Fill-11" fill="#FFFFFF" mask="url(#mask-6)"></path>
            </g>
            <path d="M48.1901,38.4932 C38.2761,38.4932 26.3281,51.4582 25.3111,61.3722 C24.2941,71.2862 35.7341,79.1662 46.1561,76.8782 C56.5791,74.5912 62.0441,58.0672 61.0271,50.1862 C60.0111,42.3062 52.4281,38.4932 48.1901,38.4932" id="Fill-14" fill="#404041"></path>
            <path d="M57.3416,54.5083 C57.3416,58.4393 54.1546,61.6263 50.2236,61.6263 C46.2926,61.6263 43.1056,58.4393 43.1056,54.5083 C43.1056,50.5773 46.2926,47.3903 50.2236,47.3903 C54.1546,47.3903 57.3416,50.5773 57.3416,54.5083" id="Fill-16" fill="#FFFFFF"></path>
            <path d="M97.5922,38.4932 C107.5062,38.4932 119.4542,51.4582 120.4712,61.3722 C121.4872,71.2862 110.0482,79.1662 99.6262,76.8782 C89.2032,74.5912 83.7382,58.0672 84.7542,50.1862 C85.7712,42.3062 93.3542,38.4932 97.5922,38.4932" id="Fill-18" fill="#404041"></path>
            <path d="M88.4407,54.5083 C88.4407,58.4393 91.6277,61.6263 95.5587,61.6263 C99.4897,61.6263 102.6767,58.4393 102.6767,54.5083 C102.6767,50.5773 99.4897,47.3903 95.5587,47.3903 C91.6277,47.3903 88.4407,50.5773 88.4407,54.5083" id="Fill-20" fill="#FFFFFF"></path>
            <path d="M72.8911,72.6841 C65.3631,72.6841 64.9201,76.6701 66.0271,79.1051 C67.1341,81.5411 69.7911,83.0911 72.8911,83.0911 C75.9911,83.0911 78.6481,81.5411 79.7551,79.1051 C80.8621,76.6701 80.4191,72.6841 72.8911,72.6841" id="Fill-22" fill="#404041"></path>
            <path d="M38.4142,83.2097 C38.4142,86.2107 33.2072,88.6437 26.7842,88.6437 C20.3612,88.6437 15.1542,86.2107 15.1542,83.2097 C15.1542,80.2087 20.3612,77.7757 26.7842,77.7757 C33.2072,77.7757 38.4142,80.2087 38.4142,83.2097" id="Fill-24" fill="#F38894"></path>
            <path d="M130.8822,83.1306 C130.8822,86.1316 125.6752,88.5646 119.2522,88.5646 C112.8292,88.5646 107.6222,86.1316 107.6222,83.1306 C107.6222,80.1296 112.8292,77.6966 119.2522,77.6966 C125.6752,77.6966 130.8822,80.1296 130.8822,83.1306" id="Fill-26" fill="#F38894"></path>
            <path d="M72.8913,92.258 C72.2593,92.258 71.7473,91.746 71.7473,91.114 L71.7473,80.946 C71.7473,80.314 72.2593,79.802 72.8913,79.802 C73.5233,79.802 74.0353,80.314 74.0353,80.946 L74.0353,91.114 C74.0353,91.746 73.5233,92.258 72.8913,92.258" id="Fill-28" fill="#404041"></path>
            <path d="M50.2237,47.7491 C47.1467,42.0351 36.9437,41.6661 37.2677,52.1731 C37.5917,62.6791 50.2237,65.9971 50.2237,65.9971 C50.2237,65.9971 62.8557,62.6791 63.1797,52.1731 C63.5037,41.6661 53.3007,42.0351 50.2237,47.7491" id="Fill-30" fill="#EC1C24"></path>
            <path d="M41.3977,50.6183 C41.0367,52.0893 40.2727,53.1313 39.6917,52.9463 C39.1097,52.7613 38.9307,51.4193 39.2917,49.9493 C39.6527,48.4783 40.4167,47.4353 40.9977,47.6203 C41.5797,47.8053 41.7587,49.1473 41.3977,50.6183" id="Fill-32" fill="#FFFFFF"></path>
            <path d="M95.5585,46.8122 C92.4815,41.0982 82.2785,40.7292 82.6025,51.2362 C82.9265,61.7422 95.5585,65.0602 95.5585,65.0602 C95.5585,65.0602 108.1905,61.7422 108.5145,51.2362 C108.8385,40.7292 98.6355,41.0982 95.5585,46.8122" id="Fill-34" fill="#EC1C24"></path>
            <path d="M86.7324,49.6813 C86.3714,51.1523 85.6074,52.1943 85.0264,52.0093 C84.4444,51.8253 84.2654,50.4823 84.6264,49.0123 C84.9874,47.5413 85.7514,46.4993 86.3324,46.6833 C86.9144,46.8683 87.0934,48.2103 86.7324,49.6813" id="Fill-36" fill="#FFFFFF"></path>
            <path d="M97.1582,107.6074 C95.4852,98.3644 83.4042,90.1874 72.8912,90.1874 C62.3782,90.1874 50.2972,98.3644 48.6242,107.6074 C46.9512,116.8504 59.2192,118.9834 63.8652,116.6724 C68.5122,114.3624 72.8912,114.7174 72.8912,114.7174 C72.8912,114.7174 77.2702,114.3624 81.9172,116.6724 C86.5642,118.9834 98.8312,116.8504 97.1582,107.6074" id="Fill-38" fill="#ED2835"></path>
            <path d="M80.0777,114.8173 C77.6807,115.1343 81.5047,118.1113 81.5047,119.7583 C81.5047,121.4043 80.6037,128.7603 83.3597,128.5413 C86.1157,128.3213 85.0187,125.5773 85.5677,124.4793 C86.1157,123.3813 86.7747,123.3813 86.3357,119.8673 C85.8967,116.3543 81.9067,114.5763 80.0777,114.8173" id="Fill-40" fill="#63CCF6"></path>
            <polygon id="Fill-42" fill="#404041" points="35.7828 33.9727 47.1408 25.0117 50.5718 29.4927"></polygon>
            <polygon id="Fill-44" fill="#404041" points="109.9997 33.9727 98.6417 25.0117 95.2107 29.4927"></polygon>
        </g>
    </g>
</svg>