<?xml version="1.0" encoding="UTF-8"?>
<svg width="146px" height="131px" viewBox="0 0 146 131" version="1.1" xmlns="http://www.w3.org/2000/svg" xmlns:xlink="http://www.w3.org/1999/xlink">
    <!-- Generator: Sketch 41 (35326) - http://www.bohemiancoding.com/sketch -->
    <title>pandaborn</title>
    <desc>Created with Sketch.</desc>
    <defs>
        <polygon id="path-1" points="43.1577393 0.985 0.1084 0.985 0.1084 43.0549251 43.1577393 43.0549251"></polygon>
        <polygon id="path-3" points="43.6738 0.985 0.624128805 0.985 0.624128805 43.0549251 43.6738 43.0549251 43.6738 0.985"></polygon>
        <polygon id="path-5" points="145.782 124.9998 145.782 0.1608 0.000156881769 0.1608 0.000156881769 124.9998"></polygon>
    </defs>
    <g id="Page-1" stroke="none" stroke-width="1" fill="none" fill-rule="evenodd">
        <g id="pandaborn" transform="translate(0.000000, -1.000000)">
            <g id="Page-1">
                <g id="Group-3" transform="translate(101.000000, 0.015000)">
                    <mask id="mask-2" fill="white">
                        <use xlink:href="#path-1"></use>
                    </mask>
                    <g id="Clip-2"></g>
                    <path d="M0.1084,14.9336 C0.1084,14.9336 8.4974,-9.2164 29.8504,6.0366 C51.2044,21.2886 43.5774,37.9896 29.8504,42.6036 C16.1234,47.2176 0.1084,14.9336 0.1084,14.9336" id="Fill-1" fill="#404041" mask="url(#mask-2)"></path>
                </g>
                <path d="M111.4961,21.8669 C111.4961,21.8669 117.6211,7.0279 127.8291,16.3609 C138.0381,25.6949 125.4981,32.9169 125.4981,32.9169 C125.4981,32.9169 119.6631,35.2479 111.4961,21.8669" id="Fill-4" fill="#616264"></path>
                <g id="Group-8" transform="translate(1.000000, 0.015000)">
                    <mask id="mask-4" fill="white">
                        <use xlink:href="#path-3"></use>
                    </mask>
                    <g id="Clip-7"></g>
                    <path d="M43.6738,14.9336 C43.6738,14.9336 35.2848,-9.2164 13.9318,6.0366 C-7.4222,21.2886 0.2038,37.9896 13.9318,42.6036 C27.6588,47.2176 43.6738,14.9336 43.6738,14.9336" id="Fill-6" fill="#404041" mask="url(#mask-4)"></path>
                </g>
                <path d="M34.2861,21.8669 C34.2861,21.8669 28.1611,7.0279 17.9531,16.3609 C7.7441,25.6949 20.2841,32.9169 20.2841,32.9169 C20.2841,32.9169 26.1191,35.2479 34.2861,21.8669" id="Fill-9" fill="#616264"></path>
                <g id="Group-13" transform="translate(0.000000, 7.015000)">
                    <mask id="mask-6" fill="white">
                        <use xlink:href="#path-5"></use>
                    </mask>
                    <g id="Clip-12"></g>
                    <path d="M134.2644,46.1518 C127.6884,19.9478 100.8374,0.1608 72.8914,0.1608 C44.9444,0.1608 18.0934,19.9478 11.5174,46.1518 C11.5174,46.1518 -3.5856,54.8568 0.7984,79.8758 C5.1824,104.8948 24.6694,124.9998 72.8914,124.9998 C121.1134,124.9998 140.6004,104.8948 144.9844,79.8758 C149.3684,54.8568 134.2644,46.1518 134.2644,46.1518" id="Fill-11" fill="#FFFFFF" mask="url(#mask-6)"></path>
                </g>
                <path d="M48.1901,38.4932 C38.2761,38.4932 26.3281,51.4582 25.3111,61.3722 C24.2941,71.2862 35.7341,79.1662 46.1561,76.8782 C56.5791,74.5912 62.0441,58.0672 61.0271,50.1872 C60.0111,42.3062 52.4281,38.4932 48.1901,38.4932" id="Fill-14" fill="#404041"></path>
                <path d="M57.3416,54.5083 C57.3416,58.4393 54.1546,61.6263 50.2236,61.6263 C46.2926,61.6263 43.1056,58.4393 43.1056,54.5083 C43.1056,50.5773 46.2926,47.3903 50.2236,47.3903 C54.1546,47.3903 57.3416,50.5773 57.3416,54.5083" id="Fill-16" fill="#FFFFFF"></path>
                <path d="M51.0499,53.2151 C51.0499,53.9291 50.6799,54.5081 50.2239,54.5081 C49.7679,54.5081 49.3979,53.9291 49.3979,53.2151 C49.3979,52.5011 49.7679,51.9221 50.2239,51.9221 C50.6799,51.9221 51.0499,52.5011 51.0499,53.2151" id="Fill-18" fill="#FFFFFF"></path>
                <path d="M97.5922,38.4932 C107.5062,38.4932 119.4542,51.4582 120.4712,61.3722 C121.4872,71.2862 110.0482,79.1662 99.6262,76.8782 C89.2032,74.5912 83.7382,58.0672 84.7542,50.1872 C85.7712,42.3062 93.3542,38.4932 97.5922,38.4932" id="Fill-20" fill="#404041"></path>
                <path d="M88.4407,54.5083 C88.4407,58.4393 91.6277,61.6263 95.5587,61.6263 C99.4897,61.6263 102.6767,58.4393 102.6767,54.5083 C102.6767,50.5773 99.4897,47.3903 95.5587,47.3903 C91.6277,47.3903 88.4407,50.5773 88.4407,54.5083" id="Fill-22" fill="#FFFFFF"></path>
                <path d="M72.8911,72.6842 C65.3631,72.6842 64.9201,76.6702 66.0271,79.1052 C67.1341,81.5412 69.7911,83.0912 72.8911,83.0912 C75.9911,83.0912 78.6481,81.5412 79.7551,79.1052 C80.8621,76.6702 80.4201,72.6842 72.8911,72.6842" id="Fill-24" fill="#404041"></path>
                <path d="M38.4142,83.2098 C38.4142,86.2108 33.2072,88.6438 26.7842,88.6438 C20.3612,88.6438 15.1542,86.2108 15.1542,83.2098 C15.1542,80.2088 20.3612,77.7758 26.7842,77.7758 C33.2072,77.7758 38.4142,80.2088 38.4142,83.2098" id="Fill-26" fill="#F38894"></path>
                <path d="M130.8822,83.1307 C130.8822,86.1317 125.6752,88.5647 119.2522,88.5647 C112.8292,88.5647 107.6222,86.1317 107.6222,83.1307 C107.6222,80.1297 112.8292,77.6967 119.2522,77.6967 C125.6752,77.6967 130.8822,80.1297 130.8822,83.1307" id="Fill-28" fill="#F38894"></path>
                <path d="M72.8912,103.3762 C72.2592,103.3762 71.7472,102.4072 71.7472,101.2112 L71.7472,81.9672 C71.7472,80.7712 72.2592,79.8022 72.8912,79.8022 C73.5232,79.8022 74.0352,80.7712 74.0352,81.9672 L74.0352,101.2112 C74.0352,102.4072 73.5232,103.3762 72.8912,103.3762" id="Fill-30" fill="#404041"></path>
                <path d="M45.4134,57.8189 C45.3964,57.8189 45.3794,57.8179 45.3614,57.8159 C45.1344,57.7869 44.9744,57.5809 45.0024,57.3539 C45.0104,57.2919 45.8244,51.1979 50.3794,51.1979 C54.0394,51.1979 55.2954,55.2389 55.4474,57.3759 C55.4634,57.6039 55.2924,57.8009 55.0644,57.8179 C54.8404,57.8369 54.6384,57.6629 54.6224,57.4349 C54.6054,57.2139 54.1834,52.0249 50.3794,52.0249 C46.5554,52.0249 45.8304,57.4019 45.8234,57.4569 C45.7974,57.6659 45.6194,57.8189 45.4134,57.8189" id="Fill-32" fill="#404041"></path>
                <path d="M90.7482,57.8189 C90.7312,57.8189 90.7142,57.8179 90.6962,57.8159 C90.4692,57.7869 90.3092,57.5809 90.3372,57.3539 C90.3452,57.2919 91.1592,51.1979 95.7132,51.1979 C99.3742,51.1979 100.6292,55.2389 100.7822,57.3759 C100.7982,57.6039 100.6272,57.8009 100.3992,57.8179 C100.1752,57.8369 99.9732,57.6629 99.9572,57.4349 C99.9402,57.2139 99.5182,52.0249 95.7132,52.0249 C91.8902,52.0249 91.1652,57.4019 91.1582,57.4569 C91.1312,57.6659 90.9542,57.8189 90.7482,57.8189" id="Fill-34" fill="#404041"></path>
            </g>
            <g id="Page-1" transform="translate(50.000000, 93.000000)">
                <g id="Group-3" transform="translate(15.067055, 0.135040)" fill="#F7B73E">
                    <path d="M0.239645481,10.70724 L7.38420525,17.91484 C7.38420525,17.91484 23.5463977,12.42004 16.4022344,3.05084 C16.4022344,3.05084 11.8484152,-2.26516 6.22245598,1.78924 C6.22245598,1.78924 2.38114985,4.76324 0.239645481,10.70724" id="Fill-1"></path>
                </g>
                <path d="M26.2314659,25.83096 C25.1470344,26.92536 23.6486554,27.18696 22.8845971,26.41576 L7.25688863,10.65016 C6.49243382,9.87896 6.75134927,8.36776 7.83617726,7.27296 C8.92378076,6.17616 10.4221598,5.91456 11.1866146,6.68576 L26.814323,22.45136 C27.5783813,23.22216 27.3186729,24.73416 26.2314659,25.83096" id="Fill-4" fill="#00DAE3"></path>
                <path d="M14.3855883,19.22432 C11.6921539,16.50752 7.31676035,16.50752 4.62649796,19.22152 C1.93385656,21.93792 1.93108105,26.35432 4.62451545,29.07152 C7.31438134,31.78472 11.6953259,31.78592 14.3883638,29.06912 C17.0786262,26.35512 17.0750577,21.93792 14.3855883,19.22432 M2.78355918,30.92872 C-0.925711953,27.18672 -0.929280466,21.10392 2.78157668,17.36032 C6.48926181,13.61952 12.521635,13.62032 16.2309061,17.36272 C19.9397808,21.10392 19.9381948,27.18712 16.2301131,30.92792 C12.5196525,34.67112 6.49243382,34.66992 2.78355918,30.92872" id="Fill-6" fill="#00DAE3"></path>
            </g>
        </g>
    </g>
</svg>