<?xml version="1.0" encoding="UTF-8"?>
<svg width="201px" height="139px" viewBox="0 0 201 139" version="1.1" xmlns="http://www.w3.org/2000/svg" xmlns:xlink="http://www.w3.org/1999/xlink">
    <!-- Generator: Sketch 41 (35326) - http://www.bohemiancoding.com/sketch -->
    <title>Panda</title>
    <desc>Created with Sketch.</desc>
    <defs>
        <polygon id="path-1" points="43.1577393 0.985 0.1084 0.985 0.1084 43.0548251 43.1577393 43.0548251 43.1577393 0.985"></polygon>
        <polygon id="path-3" points="43.6739 0.985 0.624228805 0.985 0.624228805 43.0548251 43.6739 43.0548251 43.6739 0.985"></polygon>
        <polygon id="path-5" points="145.782 124.9997 145.782 0.1607 0.000156881769 0.1607 0.000156881769 124.9997"></polygon>
    </defs>
    <g id="Page-1" stroke="none" stroke-width="1" fill="none" fill-rule="evenodd">
        <g id="Panda" transform="translate(-5.000000, -1.000000)">
            <g id="Page-1" transform="translate(32.000000, 0.000000)">
                <g id="Group-3" transform="translate(101.000000, 0.015000)">
                    <mask id="mask-2" fill="white">
                        <use xlink:href="#path-1"></use>
                    </mask>
                    <g id="Clip-2"></g>
                    <path d="M0.1084,14.9335 C0.1084,14.9335 8.4974,-9.2165 29.8504,6.0365 C51.2044,21.2885 43.5774,37.9895 29.8504,42.6035 C16.1234,47.2175 0.1084,14.9335 0.1084,14.9335" id="Fill-1" fill="#404041" mask="url(#mask-2)"></path>
                </g>
                <path d="M111.4961,21.8668 C111.4961,21.8668 117.6211,7.0278 127.8291,16.3608 C138.0381,25.6948 125.4981,32.9168 125.4981,32.9168 C125.4981,32.9168 119.6631,35.2478 111.4961,21.8668" id="Fill-4" fill="#616264"></path>
                <g id="Group-8" transform="translate(1.000000, 0.015000)">
                    <mask id="mask-4" fill="white">
                        <use xlink:href="#path-3"></use>
                    </mask>
                    <g id="Clip-7"></g>
                    <path d="M43.6739,14.9335 C43.6739,14.9335 35.2849,-9.2165 13.9319,6.0365 C-7.4221,21.2885 0.2039,37.9895 13.9319,42.6035 C27.6589,47.2175 43.6739,14.9335 43.6739,14.9335" id="Fill-6" fill="#404041" mask="url(#mask-4)"></path>
                </g>
                <path d="M34.2862,21.8668 C34.2862,21.8668 28.1612,7.0278 17.9532,16.3608 C7.7442,25.6948 20.2842,32.9168 20.2842,32.9168 C20.2842,32.9168 26.1192,35.2478 34.2862,21.8668" id="Fill-9" fill="#616264"></path>
                <g id="Group-13" transform="translate(0.000000, 7.015000)">
                    <mask id="mask-6" fill="white">
                        <use xlink:href="#path-5"></use>
                    </mask>
                    <g id="Clip-12"></g>
                    <path d="M134.2644,46.1517 C127.6884,19.9477 100.8384,0.1607 72.8914,0.1607 C44.9444,0.1607 18.0934,19.9477 11.5174,46.1517 C11.5174,46.1517 -3.5856,54.8567 0.7984,79.8757 C5.1824,104.8947 24.6694,124.9997 72.8914,124.9997 C121.1134,124.9997 140.6004,104.8947 144.9844,79.8757 C149.3684,54.8567 134.2644,46.1517 134.2644,46.1517" id="Fill-11" fill="#FFFFFF" mask="url(#mask-6)"></path>
                </g>
                <path d="M48.1901,38.4932 C38.2761,38.4932 26.3281,51.4582 25.3111,61.3722 C24.2941,71.2862 35.7341,79.1662 46.1561,76.8782 C56.5791,74.5912 62.0441,58.0672 61.0271,50.1862 C60.0111,42.3062 52.4281,38.4932 48.1901,38.4932" id="Fill-14" fill="#404041"></path>
                <path d="M57.3416,54.5083 C57.3416,58.4393 54.1546,61.6263 50.2236,61.6263 C46.2926,61.6263 43.1056,58.4393 43.1056,54.5083 C43.1056,50.5773 46.2926,47.3903 50.2236,47.3903 C54.1546,47.3903 57.3416,50.5773 57.3416,54.5083" id="Fill-16" fill="#FFFFFF"></path>
                <path d="M54.7995,54.8069 C54.7995,56.9589 53.1775,58.7029 51.1775,58.7029 C49.1765,58.7029 47.5545,56.9589 47.5545,54.8069 C47.5545,52.6549 49.1765,50.9109 51.1775,50.9109 C53.1775,50.9109 54.7995,52.6549 54.7995,54.8069" id="Fill-18" fill="#404041"></path>
                <path d="M51.0499,53.215 C51.0499,53.929 50.6799,54.508 50.2239,54.508 C49.7679,54.508 49.3979,53.929 49.3979,53.215 C49.3979,52.501 49.7679,51.922 50.2239,51.922 C50.6799,51.922 51.0499,52.501 51.0499,53.215" id="Fill-20" fill="#FFFFFF"></path>
                <path d="M97.5922,38.4932 C107.5062,38.4932 119.4542,51.4582 120.4712,61.3722 C121.4872,71.2862 110.0482,79.1662 99.6262,76.8782 C89.2032,74.5912 83.7382,58.0672 84.7542,50.1862 C85.7712,42.3062 93.3542,38.4932 97.5922,38.4932" id="Fill-22" fill="#404041"></path>
                <path d="M88.4407,54.5083 C88.4407,58.4393 91.6277,61.6263 95.5587,61.6263 C99.4897,61.6263 102.6767,58.4393 102.6767,54.5083 C102.6767,50.5773 99.4897,47.3903 95.5587,47.3903 C91.6277,47.3903 88.4407,50.5773 88.4407,54.5083" id="Fill-24" fill="#FFFFFF"></path>
                <path d="M90.9828,54.8069 C90.9828,56.9589 92.6048,58.7029 94.6048,58.7029 C96.6058,58.7029 98.2278,56.9589 98.2278,54.8069 C98.2278,52.6549 96.6058,50.9109 94.6048,50.9109 C92.6048,50.9109 90.9828,52.6549 90.9828,54.8069" id="Fill-26" fill="#404041"></path>
                <path d="M94.7323,53.215 C94.7323,53.929 95.1023,54.508 95.5583,54.508 C96.0153,54.508 96.3843,53.929 96.3843,53.215 C96.3843,52.501 96.0153,51.922 95.5583,51.922 C95.1023,51.922 94.7323,52.501 94.7323,53.215" id="Fill-28" fill="#FFFFFF"></path>
                <path d="M72.8911,72.6841 C65.3631,72.6841 64.9201,76.6701 66.0271,79.1051 C67.1341,81.5411 69.7911,83.0911 72.8911,83.0911 C75.9911,83.0911 78.6481,81.5411 79.7551,79.1051 C80.8621,76.6701 80.4201,72.6841 72.8911,72.6841" id="Fill-30" fill="#404041"></path>
                <path d="M52.2558,96.1401 C52.2558,96.1401 57.3418,112.0861 73.0178,112.0861 C89.3368,112.0861 93.6538,96.1401 93.6538,96.1401 C93.6538,96.1401 79.3238,107.8921 72.8908,87.5551 C72.8908,87.5551 70.7798,105.4771 52.2558,96.1401" id="Fill-32" fill="#ED2835"></path>
                <path d="M87.3589,99.1994 C84.8949,99.7764 82.0169,99.7034 79.3119,97.8174 C69.2919,97.7144 62.9499,104.0644 60.2099,107.5844 C63.3389,110.1274 67.5269,112.0864 73.0179,112.0864 C83.4389,112.0864 88.9609,105.5864 91.5939,100.8864 C90.1329,100.1984 88.7219,99.6404 87.3589,99.1994" id="Fill-34" fill="#F1717D"></path>
                <path d="M38.4142,83.2097 C38.4142,86.2107 33.2072,88.6437 26.7842,88.6437 C20.3612,88.6437 15.1542,86.2107 15.1542,83.2097 C15.1542,80.2087 20.3612,77.7757 26.7842,77.7757 C33.2072,77.7757 38.4142,80.2087 38.4142,83.2097" id="Fill-36" fill="#F38894"></path>
                <path d="M130.8822,83.1306 C130.8822,86.1316 125.6752,88.5646 119.2522,88.5646 C112.8292,88.5646 107.6222,86.1316 107.6222,83.1306 C107.6222,80.1296 112.8292,77.6966 119.2522,77.6966 C125.6752,77.6966 130.8822,80.1296 130.8822,83.1306" id="Fill-38" fill="#F38894"></path>
                <path d="M72.8912,92.258 C72.2592,92.258 71.7472,91.746 71.7472,91.114 L71.7472,80.946 C71.7472,80.314 72.2592,79.802 72.8912,79.802 C73.5232,79.802 74.0352,80.314 74.0352,80.946 L74.0352,91.114 C74.0352,91.746 73.5232,92.258 72.8912,92.258" id="Fill-40" fill="#404041"></path>
                <path d="M61.7423,100.0094 C58.4633,100.0094 54.7433,98.8584 50.6213,96.5624 C50.0683,96.2544 49.8703,95.5584 50.1783,95.0064 C50.4843,94.4544 51.1833,94.2564 51.7333,94.5634 C57.4343,97.7394 62.1513,98.5234 65.7603,96.8974 C70.4823,94.7684 71.7613,89.1464 71.7733,89.0904 C71.9093,88.4734 72.5193,88.0854 73.1353,88.2174 C73.7533,88.3524 74.1443,88.9624 74.0093,89.5794 C73.9483,89.8564 72.4603,96.3874 66.7013,98.9834 C65.1833,99.6674 63.5283,100.0094 61.7423,100.0094" id="Fill-42" fill="#404041"></path>
                <path d="M84.1675,100.0094 C82.3805,100.0094 80.7255,99.6674 79.2085,98.9834 C73.4495,96.3864 71.9615,89.8564 71.9005,89.5794 C71.7655,88.9624 72.1565,88.3524 72.7745,88.2174 C73.3915,88.0844 74.0005,88.4734 74.1355,89.0894 C74.1585,89.1874 75.4755,94.8024 80.1655,96.9054 C83.7695,98.5214 88.4845,97.7334 94.1765,94.5634 C94.7255,94.2564 95.4245,94.4544 95.7315,95.0064 C96.0395,95.5584 95.8415,96.2544 95.2885,96.5624 C91.1675,98.8584 87.4455,100.0094 84.1675,100.0094" id="Fill-44" fill="#404041"></path>
            </g>
            <g id="hand" transform="translate(27.809337, 115.558756) rotate(-13.000000) translate(-27.809337, -115.558756) translate(4.809337, 91.558756)">
                <ellipse id="Oval-2" stroke="#979797" fill="#616264" transform="translate(37.819441, 11.202180) rotate(16.000000) translate(-37.819441, -11.202180) " cx="37.8194405" cy="11.2021801" rx="4" ry="6.0277768"></ellipse>
                <ellipse id="Oval-2-Copy" stroke="#979797" fill="#616264" transform="translate(21.142655, 9.707394) rotate(-21.000000) translate(-21.142655, -9.707394) " cx="21.1426547" cy="9.70739378" rx="4" ry="8.27971988"></ellipse>
                <ellipse id="Oval-2-Copy-2" stroke="#979797" fill="#616264" transform="translate(29.804846, 9.279720) rotate(-8.000000) translate(-29.804846, -9.279720) " cx="29.8048461" cy="9.27971988" rx="4" ry="7.5"></ellipse>
                <ellipse id="Oval-2-Copy-3" stroke="#979797" fill="#616264" transform="translate(14.000000, 13.500000) rotate(-38.000000) translate(-14.000000, -13.500000) " cx="14" cy="13.5" rx="4" ry="7.5"></ellipse>
                <ellipse id="Oval-2-Copy-4" stroke="#979797" fill="#616264" transform="translate(9.000000, 20.500000) rotate(-61.000000) translate(-9.000000, -20.500000) " cx="9" cy="20.5" rx="4" ry="7.5"></ellipse>
                <ellipse id="Oval" stroke="#979797" fill="#616264" cx="27.5" cy="31" rx="18.5" ry="17"></ellipse>
                <ellipse id="Oval-3" fill="#F38894" transform="translate(22.749429, 36.813498) rotate(11.000000) translate(-22.749429, -36.813498) " cx="22.7494292" cy="36.8134979" rx="9.42407715" ry="7.85339763"></ellipse>
                <ellipse id="Oval-4" fill="#F38894" transform="translate(40.677738, 31.282654) rotate(7.000000) translate(-40.677738, -31.282654) " cx="40.6777377" cy="31.2826538" rx="4.15177639" ry="6.91962732"></ellipse>
                <ellipse id="Oval-5" fill="#F38894" transform="translate(8.992541, 20.869284) rotate(-50.000000) translate(-8.992541, -20.869284) " cx="8.9925406" cy="20.8692838" rx="3" ry="4"></ellipse>
                <ellipse id="Oval-5-Copy" fill="#F38894" cx="30" cy="9" rx="3" ry="4"></ellipse>
                <ellipse id="Oval-5-Copy-2" fill="#F38894" transform="translate(37.751762, 11.997337) rotate(35.000000) translate(-37.751762, -11.997337) " cx="37.7517619" cy="11.9973375" rx="3" ry="4"></ellipse>
                <ellipse id="Oval-5-Copy-3" fill="#F38894" transform="translate(21.367583, 9.874392) rotate(-24.000000) translate(-21.367583, -9.874392) " cx="21.3675829" cy="9.87439176" rx="3" ry="4"></ellipse>
                <ellipse id="Oval-5-Copy-4" fill="#F38894" transform="translate(13.694568, 12.988599) rotate(-33.000000) translate(-13.694568, -12.988599) " cx="13.6945678" cy="12.9885994" rx="3" ry="4"></ellipse>
            </g>
            <g id="hand-copy" transform="translate(183.011930, 116.675863) scale(-1, 1) rotate(-17.000000) translate(-183.011930, -116.675863) translate(160.011930, 92.675863)">
                <ellipse id="Oval-2" stroke="#979797" fill="#616264" transform="translate(37.819441, 11.202180) rotate(16.000000) translate(-37.819441, -11.202180) " cx="37.8194405" cy="11.2021801" rx="4" ry="6.0277768"></ellipse>
                <ellipse id="Oval-2-Copy" stroke="#979797" fill="#616264" transform="translate(21.142655, 9.707394) rotate(-21.000000) translate(-21.142655, -9.707394) " cx="21.1426547" cy="9.70739378" rx="4" ry="8.27971988"></ellipse>
                <ellipse id="Oval-2-Copy-2" stroke="#979797" fill="#616264" transform="translate(29.804846, 9.279720) rotate(-8.000000) translate(-29.804846, -9.279720) " cx="29.8048461" cy="9.27971988" rx="4" ry="7.5"></ellipse>
                <ellipse id="Oval-2-Copy-3" stroke="#979797" fill="#616264" transform="translate(14.000000, 13.500000) rotate(-38.000000) translate(-14.000000, -13.500000) " cx="14" cy="13.5" rx="4" ry="7.5"></ellipse>
                <ellipse id="Oval-2-Copy-4" stroke="#979797" fill="#616264" transform="translate(9.000000, 20.500000) rotate(-61.000000) translate(-9.000000, -20.500000) " cx="9" cy="20.5" rx="4" ry="7.5"></ellipse>
                <ellipse id="Oval" stroke="#979797" fill="#616264" cx="27.5" cy="31" rx="18.5" ry="17"></ellipse>
                <ellipse id="Oval-3" fill="#F38894" transform="translate(22.749429, 36.813498) rotate(11.000000) translate(-22.749429, -36.813498) " cx="22.7494292" cy="36.8134979" rx="9.42407715" ry="7.85339763"></ellipse>
                <ellipse id="Oval-4" fill="#F38894" transform="translate(40.677738, 31.282654) rotate(7.000000) translate(-40.677738, -31.282654) " cx="40.6777377" cy="31.2826538" rx="4.15177639" ry="6.91962732"></ellipse>
                <ellipse id="Oval-5" fill="#F38894" transform="translate(8.992541, 20.869284) rotate(-50.000000) translate(-8.992541, -20.869284) " cx="8.9925406" cy="20.8692838" rx="3" ry="4"></ellipse>
                <ellipse id="Oval-5-Copy" fill="#F38894" cx="30" cy="9" rx="3" ry="4"></ellipse>
                <ellipse id="Oval-5-Copy-2" fill="#F38894" transform="translate(37.751762, 11.997337) rotate(35.000000) translate(-37.751762, -11.997337) " cx="37.7517619" cy="11.9973375" rx="3" ry="4"></ellipse>
                <ellipse id="Oval-5-Copy-3" fill="#F38894" transform="translate(21.367583, 9.874392) rotate(-24.000000) translate(-21.367583, -9.874392) " cx="21.3675829" cy="9.87439176" rx="3" ry="4"></ellipse>
                <ellipse id="Oval-5-Copy-4" fill="#F38894" transform="translate(13.694568, 12.988599) rotate(-33.000000) translate(-13.694568, -12.988599) " cx="13.6945678" cy="12.9885994" rx="3" ry="4"></ellipse>
            </g>
        </g>
    </g>
</svg>